<svg width="15" height="15" viewBox="0 0 15 15" fill="none" xmlns="http://www.w3.org/2000/svg">
<path d="M14.8216 0.136515C14.7078 0.0355666 14.5567 -0.0128673 14.4054 0.00310991L4.76251 1.07453C4.49108 1.10457 4.2857 1.33396 4.28573 1.60702V11.1534C3.80001 10.8634 3.24429 10.7115 2.67859 10.7141C1.20162 10.7142 0 11.6753 0 12.857C0 14.0388 1.20162 14.9999 2.67856 14.9999C4.1555 14.9999 5.35712 14.0388 5.35712 12.857V4.76775L13.9286 3.81257V10.0804C13.4426 9.79098 12.887 9.63965 12.3214 9.64276C10.8444 9.64276 9.64285 10.6038 9.64285 11.7856C9.64285 12.9674 10.8445 13.9285 12.3214 13.9285C13.7983 13.9285 15 12.9674 15 11.7856V0.535633C15 0.383268 14.9351 0.238123 14.8216 0.136515ZM2.67856 13.9285C1.8075 13.9285 1.07142 13.4377 1.07142 12.857C1.07142 12.2763 1.8075 11.7856 2.67856 11.7856C3.54962 11.7856 4.2857 12.2763 4.2857 12.857C4.2857 13.4377 3.54965 13.9285 2.67856 13.9285ZM12.3214 12.857C11.4504 12.857 10.7143 12.3663 10.7143 11.7856C10.7143 11.2049 11.4504 10.7142 12.3214 10.7142C13.1925 10.7142 13.9286 11.2049 13.9286 11.7856C13.9286 12.3663 13.1925 12.857 12.3214 12.857ZM13.9286 2.73472L5.35712 3.68723V2.08919L13.9286 1.13401V2.73472Z" fill="#009E81"/>
</svg>
