<svg width="15" height="15" viewBox="0 0 15 15" fill="none" xmlns="http://www.w3.org/2000/svg">
<path d="M14.75 1.25H13V0.25C13 0.111937 12.8881 0 12.75 0H0.25C0.111937 0 0 0.111937 0 0.25V13.25C0.00109375 14.216 0.783969 14.9989 1.75 15H13.25C14.216 14.9989 14.9989 14.216 15 13.25V1.5C15 1.36194 14.8881 1.25 14.75 1.25ZM14.5 13.25C14.4992 13.94 13.94 14.4992 13.25 14.5H1.75C1.06 14.4992 0.500813 13.94 0.5 13.25V0.5H12.5V12.75C12.5 12.8881 12.6119 13 12.75 13C12.8881 13 13 12.8881 13 12.75V1.75H13.5V12.75C13.5 12.8881 13.6119 13 13.75 13C13.8881 13 14 12.8881 14 12.75V1.75H14.5V13.25Z" fill="#009E81"/>
<path d="M4.75 1.5H1.75C1.61194 1.5 1.5 1.61194 1.5 1.75V6.75C1.5 6.88806 1.61194 7 1.75 7H4.75C4.88806 7 5 6.88806 5 6.75V1.75C5 1.61194 4.88806 1.5 4.75 1.5ZM4.5 6.5H2V2H4.5V6.5Z" fill="#009E81"/>
<path d="M11.25 8.5H7.75C7.61194 8.5 7.5 8.61194 7.5 8.75V12.75C7.5 12.8881 7.61194 13 7.75 13H11.25C11.3881 13 11.5 12.8881 11.5 12.75V8.75C11.5 8.61194 11.3881 8.5 11.25 8.5ZM11 12.5H8V9H11V12.5Z" fill="#009E81"/>
<path d="M11.25 1.5H6.25C6.11194 1.5 6 1.61194 6 1.75C6 1.88806 6.11194 2 6.25 2H11.25C11.3881 2 11.5 1.88806 11.5 1.75C11.5 1.61194 11.3881 1.5 11.25 1.5Z" fill="#009E81"/>
<path d="M11.25 2.5H6.25C6.11194 2.5 6 2.61194 6 2.75C6 2.88806 6.11194 3 6.25 3H11.25C11.3881 3 11.5 2.88806 11.5 2.75C11.5 2.61194 11.3881 2.5 11.25 2.5Z" fill="#009E81"/>
<path d="M11.25 3.5H6.25C6.11194 3.5 6 3.61194 6 3.75C6 3.88806 6.11194 4 6.25 4H11.25C11.3881 4 11.5 3.88806 11.5 3.75C11.5 3.61194 11.3881 3.5 11.25 3.5Z" fill="#009E81"/>
<path d="M11.25 4.5H6.25C6.11194 4.5 6 4.61194 6 4.75C6 4.88806 6.11194 5 6.25 5H11.25C11.3881 5 11.5 4.88806 11.5 4.75C11.5 4.61194 11.3881 4.5 11.25 4.5Z" fill="#009E81"/>
<path d="M11.25 5.5H6.25C6.11194 5.5 6 5.61194 6 5.75C6 5.88806 6.11194 6 6.25 6H11.25C11.3881 6 11.5 5.88806 11.5 5.75C11.5 5.61194 11.3881 5.5 11.25 5.5Z" fill="#009E81"/>
<path d="M11.25 6.5H6.25C6.11194 6.5 6 6.61194 6 6.75C6 6.88806 6.11194 7 6.25 7H11.25C11.3881 7 11.5 6.88806 11.5 6.75C11.5 6.61194 11.3881 6.5 11.25 6.5Z" fill="#009E81"/>
<path d="M3.75 8.5H1.75C1.61194 8.5 1.5 8.61194 1.5 8.75C1.5 8.88806 1.61194 9 1.75 9H3.75C3.88806 9 4 8.88806 4 8.75C4 8.61194 3.88806 8.5 3.75 8.5Z" fill="#009E81"/>
<path d="M6.75 8.5H4.75C4.61194 8.5 4.5 8.61194 4.5 8.75C4.5 8.88806 4.61194 9 4.75 9H6.75C6.88806 9 7 8.88806 7 8.75C7 8.61194 6.88806 8.5 6.75 8.5Z" fill="#009E81"/>
<path d="M3.75 9.5H1.75C1.61194 9.5 1.5 9.61194 1.5 9.75C1.5 9.88806 1.61194 10 1.75 10H3.75C3.88806 10 4 9.88806 4 9.75C4 9.61194 3.88806 9.5 3.75 9.5Z" fill="#009E81"/>
<path d="M6.75 9.5H4.75C4.61194 9.5 4.5 9.61194 4.5 9.75C4.5 9.88806 4.61194 10 4.75 10H6.75C6.88806 10 7 9.88806 7 9.75C7 9.61194 6.88806 9.5 6.75 9.5Z" fill="#009E81"/>
<path d="M3.75 10.5H1.75C1.61194 10.5 1.5 10.6119 1.5 10.75C1.5 10.8881 1.61194 11 1.75 11H3.75C3.88806 11 4 10.8881 4 10.75C4 10.6119 3.88806 10.5 3.75 10.5Z" fill="#009E81"/>
<path d="M6.75 10.5H4.75C4.61194 10.5 4.5 10.6119 4.5 10.75C4.5 10.8881 4.61194 11 4.75 11H6.75C6.88806 11 7 10.8881 7 10.75C7 10.6119 6.88806 10.5 6.75 10.5Z" fill="#009E81"/>
<path d="M3.75 11.5H1.75C1.61194 11.5 1.5 11.6119 1.5 11.75C1.5 11.8881 1.61194 12 1.75 12H3.75C3.88806 12 4 11.8881 4 11.75C4 11.6119 3.88806 11.5 3.75 11.5Z" fill="#009E81"/>
<path d="M6.75 11.5H4.75C4.61194 11.5 4.5 11.6119 4.5 11.75C4.5 11.8881 4.61194 12 4.75 12H6.75C6.88806 12 7 11.8881 7 11.75C7 11.6119 6.88806 11.5 6.75 11.5Z" fill="#009E81"/>
</svg>
