<svg width="15" height="15" viewBox="0 0 15 15" fill="none" xmlns="http://www.w3.org/2000/svg">
<g clip-path="url(#clip0)">
<path d="M14.625 6.49499C14.6245 6.49465 14.6242 6.49419 14.6238 6.49385L8.50502 0.375253C8.24421 0.114327 7.89745 -0.0292969 7.52861 -0.0292969C7.15977 -0.0292969 6.81301 0.114327 6.55208 0.375253L0.436463 6.49076C0.434403 6.49282 0.432229 6.49499 0.430284 6.49705C-0.105301 7.03573 -0.104385 7.90971 0.432916 8.44702C0.678392 8.69261 1.00249 8.83474 1.34913 8.84973C1.36332 8.85111 1.37751 8.85179 1.39182 8.85179H1.63558V13.3546C1.63558 14.2457 2.36068 14.9707 3.25183 14.9707H5.64571C5.88844 14.9707 6.08516 14.7739 6.08516 14.5313V11.001C6.08516 10.5944 6.41601 10.2637 6.82262 10.2637H8.2346C8.64121 10.2637 8.97194 10.5944 8.97194 11.001V14.5313C8.97194 14.7739 9.16867 14.9707 9.4114 14.9707H11.8053C12.6965 14.9707 13.4215 14.2457 13.4215 13.3546V8.85179H13.6477C14.0164 8.85179 14.3631 8.70817 14.6242 8.44713C15.1621 7.90903 15.1623 7.03344 14.625 6.49499ZM14.0027 7.82571C13.9078 7.92059 13.7817 7.97289 13.6477 7.97289H12.9821C12.7393 7.97289 12.5426 8.16961 12.5426 8.41234V13.3546C12.5426 13.7611 12.2119 14.0918 11.8053 14.0918H9.85085V11.001C9.85085 10.1098 9.12586 9.38475 8.2346 9.38475H6.82262C5.93135 9.38475 5.20626 10.1098 5.20626 11.001V14.0918H3.25183C2.84534 14.0918 2.51449 13.7611 2.51449 13.3546V8.41234C2.51449 8.16961 2.31776 7.97289 2.07503 7.97289H1.42089C1.41402 7.97243 1.40727 7.97208 1.40029 7.97197C1.26937 7.96968 1.14657 7.91773 1.05456 7.8256C0.858866 7.62991 0.858866 7.31142 1.05456 7.11561C1.05467 7.11561 1.05467 7.11549 1.05479 7.11538L1.05513 7.11503L7.17373 0.996668C7.26849 0.901796 7.39448 0.849611 7.52861 0.849611C7.66262 0.849611 7.78862 0.901796 7.88349 0.996668L14.0007 7.11378C14.0016 7.11469 14.0027 7.11561 14.0036 7.11652C14.1982 7.31256 14.1979 7.63036 14.0027 7.82571Z" fill="#009E81"/>
</g>
<defs>
<clipPath id="clip0">
<rect width="15" height="15" fill="white"/>
</clipPath>
</defs>
</svg>
