<svg width="15" height="15" viewBox="0 0 15 15" fill="none" xmlns="http://www.w3.org/2000/svg">
<path d="M7.39311 7.22556C8.38577 7.22556 9.24522 6.86953 9.94766 6.16709C10.6499 5.46477 11.006 4.60544 11.006 3.61266C11.006 2.62023 10.65 1.76078 9.94755 1.05823C9.24511 0.356025 8.38566 0 7.39311 0C6.40034 0 5.541 0.356025 4.83868 1.05835C4.13635 1.76067 3.78021 2.62012 3.78021 3.61266C3.78021 4.60544 4.13635 5.46489 4.83868 6.16721C5.54123 6.86942 6.40068 7.22556 7.39311 7.22556V7.22556ZM5.46032 1.67988C5.99922 1.14097 6.63139 0.879019 7.39311 0.879019C8.15472 0.879019 8.787 1.14097 9.32602 1.67988C9.86492 2.21889 10.127 2.85118 10.127 3.61266C10.127 4.37438 9.86492 5.00655 9.32602 5.54557C8.787 6.08458 8.15472 6.34654 7.39311 6.34654C6.63162 6.34654 5.99945 6.08447 5.46032 5.54557C4.9213 5.00667 4.65923 4.37438 4.65923 3.61266C4.65923 2.85118 4.9213 2.21889 5.46032 1.67988Z" fill="#009E81"/>
<path d="M13.7147 11.5342C13.6945 11.242 13.6535 10.9231 13.5932 10.5864C13.5323 10.2472 13.4539 9.92658 13.3601 9.6335C13.263 9.33058 13.1313 9.03143 12.9682 8.74476C12.7992 8.44721 12.6005 8.18812 12.3776 7.97491C12.1445 7.75187 11.8591 7.57254 11.529 7.44173C11.2001 7.31161 10.8356 7.2457 10.4457 7.2457C10.2926 7.2457 10.1445 7.30852 9.85851 7.49472C9.6825 7.6095 9.47662 7.74226 9.24683 7.88908C9.05033 8.01428 8.78414 8.13158 8.45535 8.23778C8.13457 8.34158 7.80888 8.39422 7.4873 8.39422C7.16595 8.39422 6.84025 8.34158 6.51924 8.23778C6.1908 8.1317 5.92449 8.0144 5.72834 7.8892C5.50072 7.74374 5.29472 7.61099 5.11608 7.49461C4.83032 7.30841 4.68224 7.24558 4.52911 7.24558C4.1391 7.24558 3.77472 7.31161 3.44593 7.44185C3.11611 7.57243 2.83058 7.75175 2.59724 7.97503C2.37431 8.18835 2.17564 8.44732 2.00672 8.74476C1.84387 9.03143 1.71204 9.33046 1.61499 9.63362C1.52126 9.9267 1.44287 10.2472 1.38199 10.5864C1.32156 10.9227 1.28071 11.2416 1.26045 11.5346C1.24054 11.821 1.23047 12.1192 1.23047 12.4204C1.23047 13.2034 1.47938 13.8373 1.97021 14.3047C2.45499 14.7661 3.09631 15 3.87646 15H11.0991C11.879 15 12.5203 14.7661 13.0052 14.3047C13.4961 13.8376 13.745 13.2035 13.745 12.4202C13.7449 12.118 13.7347 11.8199 13.7147 11.5342V11.5342ZM12.3991 13.6679C12.0788 13.9728 11.6535 14.121 11.0989 14.121H3.87646C3.32176 14.121 2.8965 13.9728 2.57629 13.668C2.26215 13.369 2.10949 12.9608 2.10949 12.4204C2.10949 12.1393 2.11876 11.8618 2.1373 11.5954C2.15538 11.334 2.19234 11.0468 2.24716 10.7417C2.30129 10.4404 2.37019 10.1576 2.45213 9.90164C2.53075 9.65616 2.63798 9.41309 2.77096 9.17894C2.89787 8.95578 3.0439 8.76433 3.20503 8.61006C3.35575 8.46575 3.54572 8.34765 3.76957 8.25907C3.97659 8.17713 4.20925 8.13227 4.46182 8.12552C4.49261 8.14188 4.54742 8.17312 4.63623 8.23103C4.81693 8.34879 5.02522 8.48314 5.25547 8.6302C5.51502 8.79568 5.84942 8.94514 6.24893 9.07412C6.65737 9.20618 7.07394 9.27324 7.48741 9.27324C7.90089 9.27324 8.31757 9.20618 8.72578 9.07423C9.12563 8.94503 9.45992 8.79568 9.71981 8.62997C9.95544 8.47937 10.1579 8.34891 10.3386 8.23103C10.4274 8.17324 10.4822 8.14188 10.513 8.12552C10.7657 8.13227 10.9983 8.17713 11.2055 8.25907C11.4292 8.34765 11.6192 8.46586 11.7699 8.61006C11.931 8.76421 12.0771 8.95567 12.204 9.17906C12.3371 9.41309 12.4444 9.65628 12.5229 9.90152C12.605 10.1579 12.674 10.4405 12.728 10.7416C12.7827 11.0473 12.8198 11.3345 12.8379 11.5955V11.5957C12.8565 11.8611 12.8659 12.1385 12.866 12.4204C12.8659 12.9609 12.7132 13.369 12.3991 13.6679V13.6679Z" fill="#009E81"/>
</svg>
